<svg xmlns="http://www.w3.org/2000/svg" xmlns:xlink="http://www.w3.org/1999/xlink" width="4000" zoomAndPan="magnify" viewBox="0 0 3000 2999.999989" height="4000" preserveAspectRatio="xMidYMid meet" version="1.0"><defs><clipPath id="6f90d62734"><path d="M 506.25 813.75 L 2493.984375 813.75 L 2493.984375 1271.484375 L 506.25 1271.484375 Z M 506.25 813.75 " clip-rule="nonzero"/></clipPath><clipPath id="578bbaa6c3"><path d="M 647.25 813.75 L 2352.75 813.75 C 2430.621094 813.75 2493.75 876.878906 2493.75 954.75 L 2493.75 1130.25 C 2493.75 1208.121094 2430.621094 1271.25 2352.75 1271.25 L 647.25 1271.25 C 569.378906 1271.25 506.25 1208.121094 506.25 1130.25 L 506.25 954.75 C 506.25 876.878906 569.378906 813.75 647.25 813.75 " clip-rule="nonzero"/></clipPath><clipPath id="a6cd7c4cb2"><path d="M 506.25 1728.75 L 2493.984375 1728.75 L 2493.984375 2186.484375 L 506.25 2186.484375 Z M 506.25 1728.75 " clip-rule="nonzero"/></clipPath><clipPath id="cf44b02070"><path d="M 647.25 1728.75 L 2352.75 1728.75 C 2430.621094 1728.75 2493.75 1791.878906 2493.75 1869.75 L 2493.75 2045.25 C 2493.75 2123.121094 2430.621094 2186.25 2352.75 2186.25 L 647.25 2186.25 C 569.378906 2186.25 506.25 2123.121094 506.25 2045.25 L 506.25 1869.75 C 506.25 1791.878906 569.378906 1728.75 647.25 1728.75 " clip-rule="nonzero"/></clipPath></defs><g clip-path="url(#6f90d62734)"><g clip-path="url(#578bbaa6c3)"><path fill="#ffffff" d="M 506.25 813.75 L 2493.984375 813.75 L 2493.984375 1271.484375 L 506.25 1271.484375 Z M 506.25 813.75 " fill-opacity="1" fill-rule="nonzero"/></g></g><g clip-path="url(#a6cd7c4cb2)"><g clip-path="url(#cf44b02070)"><path fill="#ffffff" d="M 506.25 1728.75 L 2493.984375 1728.75 L 2493.984375 2186.484375 L 506.25 2186.484375 Z M 506.25 1728.75 " fill-opacity="1" fill-rule="nonzero"/></g></g></svg>